<?xml version="1.0" ?><svg id="Layer_2" style="enable-background:new 0 0 32 32;" version="1.1" viewBox="0 0 32 32" xml:space="preserve" xmlns="http://www.w3.org/2000/svg" xmlns:xlink="http://www.w3.org/1999/xlink"><g><path d="M4.15997,26.02002h6.38v0.01996C10.53998,29.04999,12.98999,31.5,16,31.5s5.46002-2.45001,5.46002-5.46002v-0.01996h6.38   c0.81995,0,1.5-0.67004,1.5-1.5c0-0.83002-0.68005-1.5-1.5-1.5h-1.36005v-9.78003c0-5.26001-3.90997-9.62-8.97998-10.34998V2   c0-0.83002-0.66998-1.5-1.5-1.5S14.5,1.16998,14.5,2v0.89001C9.42999,3.62,5.52002,7.97998,5.52002,13.23999v9.78003H4.15997   c-0.81995,0-1.5,0.66998-1.5,1.5C2.65997,25.34998,3.34003,26.02002,4.15997,26.02002z M13.53998,26.02002h4.92004v0.01996   C18.46002,27.40002,17.34998,28.5,16,28.5s-2.46002-1.09998-2.46002-2.46002V26.02002z"/></g></svg>